<svg xmlns="http://www.w3.org/2000/svg" xmlns:xlink="http://www.w3.org/1999/xlink" width="200" zoomAndPan="magnify" viewBox="0 0 150 149.999998" height="200" preserveAspectRatio="xMidYMid meet" version="1.0"><defs><g/><clipPath id="048de8e88a"><path d="M 2 6.855469 L 147.808594 6.855469 L 147.808594 143.144531 L 2 143.144531 Z M 2 6.855469 " clip-rule="nonzero"/></clipPath></defs><g clip-path="url(#048de8e88a)"><path fill="#ffffff" d="M 125.191406 135.648438 L 125.191406 129.421875 L 139.078125 133.011719 C 135.796875 133.789062 131.214844 134.726562 125.191406 135.648438 Z M 28.367188 129.5 L 38.714844 132.546875 L 60.5625 138.972656 C 48.796875 138.417969 38.015625 137.480469 28.367188 136.160156 Z M 24.789062 129.421875 L 24.789062 135.648438 C 18.765625 134.726562 14.183594 133.789062 10.902344 133.011719 Z M 11.003906 116.539062 L 15.835938 117.453125 L 7.613281 126.214844 C 8.601562 123.101562 9.734375 119.875 11.003906 116.539062 Z M 28.121094 80.507812 L 18.210938 114.132812 L 15.089844 113.546875 L 12.375 113.03125 C 16.453125 102.878906 21.722656 91.988281 28.121094 80.507812 Z M 61.9375 28.527344 C 62.117188 28.738281 62.296875 28.945312 62.472656 29.15625 C 62.878906 29.644531 63.28125 30.113281 63.691406 30.597656 C 63.929688 30.875 64.167969 31.167969 64.410156 31.441406 L 46.175781 51.03125 C 52.046875 42.183594 57.558594 34.460938 61.9375 28.527344 Z M 85.574219 31.441406 C 85.8125 31.167969 86.046875 30.875 86.289062 30.597656 C 86.699219 30.113281 87.101562 29.644531 87.507812 29.15625 C 87.683594 28.945312 87.863281 28.738281 88.042969 28.527344 C 92.425781 34.464844 97.933594 42.1875 103.804688 51.03125 Z M 134.890625 113.546875 L 131.769531 114.132812 L 121.855469 80.507812 C 128.253906 91.988281 133.53125 102.882812 137.605469 113.03125 Z M 35.277344 127.679688 L 74.988281 122.054688 L 114.703125 127.679688 L 105.9375 130.265625 L 74.988281 139.367188 L 44.042969 130.265625 Z M 66.207031 27.953125 C 66.109375 27.835938 66.011719 27.726562 65.914062 27.605469 C 65.652344 27.308594 65.402344 27.003906 65.144531 26.699219 C 64.816406 26.304688 64.492188 25.914062 64.167969 25.523438 C 66.191406 22.820312 68.035156 20.40625 69.644531 18.332031 Z M 84.773438 26.765625 C 84.546875 27.039062 84.324219 27.308594 84.097656 27.578125 C 83.992188 27.703125 83.878906 27.824219 83.777344 27.949219 L 80.339844 18.335938 C 81.945312 20.40625 83.792969 22.820312 85.8125 25.523438 C 85.46875 25.9375 85.125 26.351562 84.773438 26.765625 Z M 35.644531 67.679688 L 62.097656 39.261719 L 49.179688 74.648438 L 47.378906 78.414062 L 23.777344 107.941406 L 30.742188 84.304688 Z M 81.078125 31.085938 C 80.972656 31.203125 80.871094 31.324219 80.769531 31.4375 C 80.363281 31.902344 79.96875 32.355469 79.578125 32.796875 C 79.398438 33 79.222656 33.203125 79.046875 33.402344 C 78.679688 33.816406 78.324219 34.21875 77.980469 34.601562 C 77.816406 34.789062 77.644531 34.984375 77.484375 35.164062 C 77.09375 35.601562 76.726562 36.003906 76.378906 36.390625 C 76.226562 36.5625 76.082031 36.722656 75.933594 36.886719 C 75.597656 37.257812 75.269531 37.621094 75 37.917969 C 75 37.921875 74.992188 37.925781 74.988281 37.933594 C 74.984375 37.925781 74.980469 37.921875 74.980469 37.917969 C 74.707031 37.621094 74.378906 37.257812 74.042969 36.886719 C 73.898438 36.722656 73.753906 36.5625 73.597656 36.390625 C 73.253906 36.003906 72.890625 35.601562 72.496094 35.164062 C 72.335938 34.984375 72.164062 34.789062 72 34.601562 C 71.65625 34.21875 71.304688 33.816406 70.933594 33.402344 C 70.761719 33.203125 70.578125 33 70.398438 32.796875 C 70.011719 32.355469 69.613281 31.902344 69.210938 31.4375 C 69.109375 31.324219 69.003906 31.203125 68.902344 31.085938 L 74.988281 14.042969 Z M 114.335938 67.679688 L 126.199219 107.941406 L 102.597656 78.410156 L 100.867188 74.816406 L 87.886719 39.261719 L 111.035156 64.128906 Z M 122.175781 119.632812 L 125.292969 119.070312 L 129.898438 118.242188 L 140.53125 129.574219 L 124.683594 125.472656 Z M 24.824219 119.09375 L 27.808594 119.632812 L 25.296875 125.472656 L 9.449219 129.574219 L 20.082031 118.242188 Z M 120.617188 116.148438 L 109.488281 92.84375 L 127.179688 114.96875 L 124.976562 115.367188 Z M 105.441406 120.6875 L 118.464844 120.113281 L 120.460938 124.765625 L 94.996094 121.152344 Z M 31.515625 120.113281 L 43.882812 120.664062 L 54.988281 121.152344 L 29.519531 124.765625 L 31.503906 120.144531 Z M 74.988281 43.867188 L 83.949219 57.183594 L 99.539062 80.363281 L 116.785156 116.484375 L 74.988281 118.332031 L 33.195312 116.484375 L 50.441406 80.363281 L 65.289062 58.292969 Z M 22.800781 114.96875 L 40.492188 92.84375 L 29.363281 116.148438 L 25.351562 115.429688 Z M 78.332031 39.660156 C 78.617188 39.339844 78.917969 39.007812 79.246094 38.640625 C 79.382812 38.484375 79.519531 38.335938 79.660156 38.175781 C 79.933594 37.867188 80.21875 37.554688 80.511719 37.222656 C 80.714844 36.992188 80.917969 36.769531 81.128906 36.527344 C 81.378906 36.246094 81.632812 35.960938 81.890625 35.664062 C 82.09375 35.433594 82.285156 35.21875 82.496094 34.980469 L 93.351562 64.683594 L 77.289062 40.804688 C 77.550781 40.519531 77.851562 40.183594 78.195312 39.808594 C 78.242188 39.757812 78.285156 39.707031 78.332031 39.660156 Z M 67.484375 34.980469 C 67.609375 35.128906 67.730469 35.257812 67.855469 35.402344 C 68.21875 35.8125 68.570312 36.214844 68.910156 36.597656 C 69.074219 36.78125 69.226562 36.953125 69.386719 37.132812 C 69.722656 37.507812 70.039062 37.867188 70.34375 38.207031 C 70.472656 38.34375 70.589844 38.472656 70.707031 38.609375 C 71.046875 38.988281 71.359375 39.339844 71.652344 39.660156 C 71.695312 39.710938 71.742188 39.757812 71.785156 39.808594 C 72.128906 40.183594 72.429688 40.519531 72.691406 40.804688 L 62.273438 56.296875 L 56.644531 64.664062 L 56.648438 64.648438 Z M 142.363281 126.214844 L 138.777344 122.386719 L 134.140625 117.453125 L 138.976562 116.539062 C 140.246094 119.875 141.375 123.101562 142.363281 126.214844 Z M 121.613281 136.160156 C 111.964844 137.480469 101.183594 138.417969 89.417969 138.972656 L 111.265625 132.546875 L 121.613281 129.5 Z M 147.914062 133.367188 C 147.933594 133.304688 147.9375 133.246094 147.945312 133.183594 C 147.953125 133.109375 147.960938 133.039062 147.960938 132.964844 C 147.960938 132.929688 147.976562 132.890625 147.972656 132.851562 C 147.96875 132.828125 147.960938 132.808594 147.960938 132.789062 C 147.953125 132.714844 147.9375 132.652344 147.921875 132.585938 C 147.914062 132.542969 147.921875 132.503906 147.910156 132.464844 C 146.390625 126.613281 144.375 120.496094 141.757812 113.757812 C 136.070312 99.132812 127.890625 82.980469 117.445312 65.75 C 117.4375 65.738281 117.425781 65.730469 117.417969 65.71875 C 117.417969 65.714844 117.417969 65.707031 117.410156 65.703125 C 107.152344 48.78125 96.589844 33.933594 89.535156 24.457031 C 81.800781 14.054688 76.398438 7.558594 76.34375 7.5 C 76.3125 7.460938 76.265625 7.4375 76.226562 7.398438 C 76.140625 7.308594 76.046875 7.226562 75.945312 7.152344 C 75.925781 7.144531 75.917969 7.125 75.898438 7.113281 C 75.890625 7.109375 75.882812 7.109375 75.875 7.105469 C 75.824219 7.074219 75.769531 7.0625 75.71875 7.039062 C 75.617188 6.988281 75.515625 6.949219 75.410156 6.921875 C 75.371094 6.914062 75.332031 6.894531 75.292969 6.886719 C 75.246094 6.875 75.195312 6.886719 75.144531 6.882812 C 75.09375 6.875 75.046875 6.855469 74.988281 6.855469 C 74.9375 6.855469 74.886719 6.875 74.832031 6.882812 C 74.78125 6.886719 74.738281 6.875 74.6875 6.886719 C 74.648438 6.894531 74.609375 6.914062 74.570312 6.921875 C 74.464844 6.949219 74.363281 6.988281 74.265625 7.039062 C 74.210938 7.0625 74.15625 7.074219 74.105469 7.105469 C 74.097656 7.109375 74.089844 7.109375 74.082031 7.113281 C 74.0625 7.125 74.054688 7.144531 74.039062 7.152344 C 73.929688 7.226562 73.84375 7.308594 73.753906 7.398438 C 73.714844 7.4375 73.671875 7.460938 73.632812 7.5 C 73.582031 7.558594 68.179688 14.054688 60.445312 24.457031 C 60.441406 24.457031 60.441406 24.457031 60.441406 24.460938 C 53.394531 33.925781 42.84375 48.761719 32.566406 65.703125 C 32.5625 65.707031 32.5625 65.714844 32.558594 65.722656 C 32.550781 65.734375 32.542969 65.738281 32.539062 65.75 C 22.089844 82.980469 13.910156 99.132812 8.222656 113.757812 C 5.605469 120.496094 3.589844 126.613281 2.066406 132.464844 C 2.054688 132.503906 2.0625 132.546875 2.054688 132.589844 C 2.042969 132.65625 2.027344 132.71875 2.019531 132.789062 C 2.019531 132.808594 2.011719 132.828125 2.007812 132.851562 C 2.007812 132.886719 2.019531 132.925781 2.019531 132.960938 C 2.019531 133.039062 2.027344 133.113281 2.035156 133.1875 C 2.042969 133.246094 2.050781 133.308594 2.0625 133.367188 C 2.078125 133.433594 2.097656 133.488281 2.117188 133.550781 C 2.140625 133.625 2.171875 133.691406 2.203125 133.757812 C 2.21875 133.789062 2.222656 133.832031 2.246094 133.863281 C 2.257812 133.886719 2.269531 133.902344 2.28125 133.917969 C 2.3125 133.972656 2.351562 134.015625 2.386719 134.0625 C 2.421875 134.105469 2.453125 134.15625 2.488281 134.203125 C 2.535156 134.246094 2.578125 134.292969 2.625 134.332031 C 2.671875 134.375 2.722656 134.410156 2.777344 134.449219 C 2.820312 134.484375 2.863281 134.527344 2.910156 134.554688 C 2.925781 134.5625 2.953125 134.566406 2.972656 134.578125 C 3.007812 134.597656 3.046875 134.609375 3.085938 134.628906 C 3.121094 134.640625 3.148438 134.667969 3.183594 134.683594 C 3.46875 134.792969 10.328125 137.316406 26.332031 139.613281 C 26.332031 139.613281 26.332031 139.613281 26.335938 139.613281 C 40.292969 141.605469 56.652344 142.796875 74.957031 143.144531 C 74.96875 143.144531 74.980469 143.144531 74.988281 143.144531 C 75 143.144531 75.011719 143.144531 75.023438 143.144531 C 93.328125 142.796875 109.683594 141.605469 123.644531 139.613281 C 123.648438 139.613281 123.648438 139.613281 123.648438 139.613281 C 139.652344 137.316406 146.511719 134.792969 146.792969 134.683594 C 146.832031 134.667969 146.859375 134.640625 146.894531 134.628906 C 146.929688 134.609375 146.972656 134.597656 147.003906 134.578125 C 147.027344 134.566406 147.050781 134.5625 147.070312 134.554688 C 147.117188 134.527344 147.160156 134.484375 147.203125 134.449219 C 147.253906 134.410156 147.304688 134.375 147.355469 134.332031 C 147.402344 134.292969 147.445312 134.246094 147.492188 134.203125 C 147.527344 134.15625 147.558594 134.105469 147.59375 134.0625 C 147.628906 134.015625 147.667969 133.972656 147.695312 133.917969 C 147.707031 133.902344 147.726562 133.886719 147.738281 133.863281 C 147.753906 133.828125 147.757812 133.789062 147.777344 133.757812 C 147.8125 133.691406 147.839844 133.625 147.863281 133.550781 C 147.882812 133.488281 147.902344 133.433594 147.914062 133.367188 " fill-opacity="1" fill-rule="nonzero"/></g><g fill="#ffffff" fill-opacity="1"><g transform="translate(52.283168, 107.308282)"><g><path d="M 20.765625 -19.78125 L 20.765625 -15.8125 L 4.9375 -15.8125 L 4.9375 -3.953125 L 16.8125 -3.953125 L 16.8125 -7.90625 L 8.90625 -7.90625 L 8.90625 -11.859375 L 20.765625 -11.859375 L 20.765625 -3.953125 C 20.765625 -3.242188 20.585938 -2.585938 20.234375 -1.984375 C 19.878906 -1.390625 19.40625 -0.910156 18.8125 -0.546875 C 18.21875 -0.179688 17.550781 0 16.8125 0 L 4.9375 0 C 4.21875 0 3.554688 -0.175781 2.953125 -0.53125 C 2.347656 -0.882812 1.867188 -1.363281 1.515625 -1.96875 C 1.160156 -2.570312 0.984375 -3.234375 0.984375 -3.953125 L 0.984375 -15.8125 C 0.984375 -16.539062 1.160156 -17.207031 1.515625 -17.8125 C 1.867188 -18.414062 2.347656 -18.894531 2.953125 -19.25 C 3.554688 -19.601562 4.21875 -19.78125 4.9375 -19.78125 Z M 20.765625 -19.78125 "/></g></g></g><g fill="#ffffff" fill-opacity="1"><g transform="translate(73.026116, 107.308282)"><g><path d="M 10.875 0 C 9.988281 0 9.164062 -0.3125 8.40625 -0.9375 L 1.734375 -6.671875 C 1.234375 -7.117188 0.984375 -7.644531 0.984375 -8.25 L 0.984375 -19.78125 L 4.9375 -19.78125 L 4.9375 -9.140625 L 10.875 -4.03125 L 16.8125 -9.140625 L 16.8125 -19.78125 L 20.765625 -19.78125 L 20.734375 -8.25 C 20.734375 -7.625 20.492188 -7.097656 20.015625 -6.671875 L 13.34375 -0.9375 C 12.625 -0.3125 11.800781 0 10.875 0 Z M 10.875 0 "/></g></g></g></svg>