<svg xmlns="http://www.w3.org/2000/svg" xmlns:xlink="http://www.w3.org/1999/xlink" width="400" zoomAndPan="magnify" viewBox="0 0 300 74.999997" height="100" preserveAspectRatio="xMidYMid meet" version="1.0"><defs><g/><clipPath id="a16d20bdcd"><path d="M 0 0 L 80.25 0 L 80.25 75 L 0 75 Z M 0 0 " clip-rule="nonzero"/></clipPath></defs><g clip-path="url(#a16d20bdcd)"><path fill="#ffffff" d="M 67.804688 70.875 L 67.804688 67.449219 L 75.445312 69.425781 C 73.640625 69.851562 71.121094 70.367188 67.804688 70.875 Z M 14.519531 67.492188 L 20.214844 69.167969 L 32.238281 72.703125 C 25.761719 72.398438 19.832031 71.882812 14.519531 71.15625 Z M 12.550781 67.449219 L 12.550781 70.875 C 9.234375 70.367188 6.714844 69.851562 4.910156 69.425781 Z M 4.964844 60.359375 L 7.625 60.863281 L 3.101562 65.683594 C 3.644531 63.972656 4.265625 62.195312 4.964844 60.359375 Z M 14.386719 40.53125 L 8.929688 59.035156 L 7.214844 58.714844 L 5.71875 58.429688 C 7.964844 52.84375 10.863281 46.847656 14.386719 40.53125 Z M 32.996094 11.925781 C 33.09375 12.039062 33.191406 12.15625 33.289062 12.269531 C 33.515625 12.539062 33.734375 12.800781 33.960938 13.0625 C 34.089844 13.21875 34.222656 13.378906 34.355469 13.53125 L 24.320312 24.308594 C 27.550781 19.441406 30.585938 15.191406 32.996094 11.925781 Z M 46.003906 13.53125 C 46.132812 13.378906 46.261719 13.21875 46.394531 13.0625 C 46.621094 12.800781 46.84375 12.539062 47.066406 12.269531 C 47.164062 12.15625 47.261719 12.039062 47.359375 11.925781 C 49.773438 15.191406 52.804688 19.441406 56.035156 24.308594 Z M 73.140625 58.714844 L 71.421875 59.035156 L 65.96875 40.53125 C 69.488281 46.847656 72.394531 52.84375 74.636719 58.429688 Z M 18.324219 66.492188 L 40.175781 63.394531 L 62.03125 66.492188 L 57.207031 67.914062 L 40.175781 72.921875 L 23.148438 67.914062 Z M 35.34375 11.609375 C 35.289062 11.546875 35.238281 11.484375 35.183594 11.417969 C 35.039062 11.253906 34.902344 11.085938 34.761719 10.917969 C 34.578125 10.703125 34.402344 10.488281 34.222656 10.273438 C 35.335938 8.785156 36.351562 7.457031 37.234375 6.316406 Z M 45.5625 10.957031 C 45.4375 11.105469 45.316406 11.253906 45.1875 11.402344 C 45.128906 11.472656 45.070312 11.539062 45.011719 11.609375 L 43.121094 6.316406 C 44.003906 7.457031 45.019531 8.785156 46.132812 10.273438 C 45.945312 10.5 45.753906 10.730469 45.5625 10.957031 Z M 18.527344 33.472656 L 33.082031 17.832031 L 25.972656 37.304688 L 24.980469 39.378906 L 11.996094 55.628906 L 15.828125 42.621094 Z M 43.527344 13.332031 C 43.472656 13.398438 43.414062 13.464844 43.359375 13.527344 C 43.136719 13.78125 42.917969 14.03125 42.703125 14.277344 C 42.605469 14.386719 42.507812 14.5 42.410156 14.609375 C 42.207031 14.835938 42.011719 15.058594 41.824219 15.265625 C 41.734375 15.371094 41.636719 15.480469 41.550781 15.578125 C 41.335938 15.820312 41.132812 16.039062 40.941406 16.25 C 40.859375 16.347656 40.777344 16.4375 40.699219 16.527344 C 40.511719 16.730469 40.332031 16.929688 40.183594 17.09375 C 40.183594 17.097656 40.179688 17.097656 40.175781 17.101562 C 40.175781 17.097656 40.171875 17.097656 40.171875 17.09375 C 40.023438 16.929688 39.84375 16.730469 39.65625 16.527344 C 39.578125 16.4375 39.496094 16.347656 39.414062 16.25 C 39.222656 16.039062 39.019531 15.820312 38.804688 15.578125 C 38.71875 15.480469 38.625 15.371094 38.53125 15.265625 C 38.34375 15.058594 38.148438 14.835938 37.945312 14.609375 C 37.851562 14.5 37.75 14.386719 37.652344 14.277344 C 37.4375 14.03125 37.21875 13.78125 36.996094 13.527344 C 36.941406 13.464844 36.882812 13.398438 36.828125 13.332031 L 40.175781 3.957031 Z M 61.832031 33.472656 L 68.359375 55.628906 L 55.371094 39.375 L 54.417969 37.398438 L 47.273438 17.832031 L 60.011719 31.519531 Z M 66.144531 62.0625 L 67.859375 61.753906 L 70.394531 61.296875 L 76.246094 67.53125 L 67.523438 65.277344 Z M 12.570312 61.765625 L 14.210938 62.0625 L 12.832031 65.277344 L 4.109375 67.53125 L 9.960938 61.296875 Z M 65.289062 60.144531 L 59.160156 47.320312 L 68.898438 59.496094 L 67.6875 59.714844 Z M 56.9375 62.640625 L 64.101562 62.324219 L 65.199219 64.886719 L 51.1875 62.898438 Z M 16.253906 62.324219 L 23.058594 62.628906 L 29.167969 62.898438 L 15.152344 64.886719 L 16.246094 62.34375 Z M 40.175781 20.367188 L 45.105469 27.695312 L 53.6875 40.453125 L 63.179688 60.332031 L 40.175781 61.347656 L 17.175781 60.332031 L 26.667969 40.453125 L 34.839844 28.304688 Z M 11.457031 59.496094 L 21.191406 47.320312 L 15.066406 60.144531 L 12.863281 59.746094 Z M 42.015625 18.050781 C 42.171875 17.875 42.339844 17.695312 42.519531 17.492188 C 42.59375 17.40625 42.671875 17.324219 42.75 17.234375 C 42.898438 17.066406 43.054688 16.890625 43.214844 16.710938 C 43.328125 16.585938 43.4375 16.460938 43.554688 16.328125 C 43.691406 16.171875 43.832031 16.015625 43.976562 15.851562 C 44.085938 15.726562 44.191406 15.609375 44.308594 15.476562 L 50.28125 31.820312 L 41.441406 18.679688 C 41.585938 18.527344 41.753906 18.339844 41.941406 18.132812 C 41.96875 18.105469 41.992188 18.078125 42.015625 18.050781 Z M 36.046875 15.476562 C 36.117188 15.558594 36.183594 15.628906 36.253906 15.710938 C 36.453125 15.933594 36.644531 16.15625 36.832031 16.367188 C 36.921875 16.46875 37.007812 16.5625 37.09375 16.660156 C 37.277344 16.867188 37.453125 17.066406 37.621094 17.25 C 37.691406 17.328125 37.753906 17.398438 37.820312 17.472656 C 38.007812 17.683594 38.179688 17.875 38.339844 18.050781 C 38.363281 18.078125 38.390625 18.105469 38.414062 18.132812 C 38.601562 18.339844 38.769531 18.527344 38.914062 18.679688 L 33.179688 27.207031 L 30.082031 31.8125 L 30.085938 31.804688 Z M 77.253906 65.683594 L 75.28125 63.578125 L 72.730469 60.863281 L 75.390625 60.359375 C 76.089844 62.195312 76.710938 63.972656 77.253906 65.683594 Z M 65.835938 71.15625 C 60.527344 71.882812 54.59375 72.398438 48.117188 72.703125 L 60.140625 69.167969 L 65.835938 67.492188 Z M 80.308594 69.621094 C 80.320312 69.585938 80.320312 69.554688 80.328125 69.519531 C 80.332031 69.476562 80.335938 69.4375 80.335938 69.398438 C 80.335938 69.378906 80.34375 69.359375 80.339844 69.335938 C 80.339844 69.324219 80.335938 69.3125 80.335938 69.300781 C 80.328125 69.261719 80.320312 69.226562 80.3125 69.191406 C 80.308594 69.164062 80.3125 69.144531 80.308594 69.121094 C 79.46875 65.902344 78.363281 62.539062 76.921875 58.828125 C 73.789062 50.78125 69.289062 41.890625 63.539062 32.410156 C 63.535156 32.402344 63.53125 32.398438 63.527344 32.394531 C 63.527344 32.390625 63.527344 32.386719 63.523438 32.386719 C 57.875 23.070312 52.0625 14.902344 48.183594 9.683594 C 43.925781 3.960938 40.953125 0.386719 40.921875 0.351562 C 40.90625 0.332031 40.878906 0.320312 40.859375 0.300781 C 40.808594 0.25 40.757812 0.203125 40.703125 0.164062 C 40.691406 0.160156 40.6875 0.148438 40.679688 0.140625 C 40.675781 0.140625 40.667969 0.140625 40.664062 0.136719 C 40.636719 0.121094 40.609375 0.113281 40.578125 0.101562 C 40.523438 0.0742188 40.46875 0.0507812 40.410156 0.0351562 C 40.386719 0.03125 40.367188 0.0195312 40.34375 0.015625 C 40.316406 0.0117188 40.289062 0.015625 40.261719 0.015625 C 40.234375 0.0117188 40.207031 0 40.175781 0 C 40.148438 0 40.121094 0.0117188 40.089844 0.015625 C 40.0625 0.015625 40.039062 0.0117188 40.011719 0.015625 C 39.988281 0.0195312 39.96875 0.03125 39.949219 0.0351562 C 39.886719 0.0507812 39.832031 0.0742188 39.777344 0.101562 C 39.75 0.113281 39.71875 0.121094 39.691406 0.136719 C 39.6875 0.140625 39.683594 0.140625 39.675781 0.140625 C 39.667969 0.148438 39.664062 0.160156 39.652344 0.164062 C 39.59375 0.203125 39.546875 0.25 39.496094 0.300781 C 39.476562 0.320312 39.453125 0.332031 39.429688 0.351562 C 39.402344 0.386719 36.429688 3.960938 32.171875 9.683594 C 32.171875 9.683594 32.171875 9.683594 32.171875 9.6875 C 28.292969 14.894531 22.484375 23.058594 16.832031 32.386719 C 16.828125 32.386719 16.828125 32.390625 16.828125 32.394531 C 16.824219 32.402344 16.816406 32.402344 16.816406 32.410156 C 11.066406 41.890625 6.5625 50.78125 3.433594 58.828125 C 1.992188 62.539062 0.886719 65.902344 0.046875 69.121094 C 0.0390625 69.144531 0.0429688 69.167969 0.0390625 69.191406 C 0.0351562 69.230469 0.0234375 69.265625 0.0195312 69.300781 C 0.0195312 69.3125 0.015625 69.324219 0.015625 69.335938 C 0.015625 69.355469 0.0195312 69.375 0.0195312 69.398438 C 0.0195312 69.4375 0.0234375 69.480469 0.03125 69.519531 C 0.0351562 69.554688 0.0390625 69.589844 0.046875 69.621094 C 0.0507812 69.65625 0.0625 69.6875 0.0742188 69.71875 C 0.0898438 69.761719 0.105469 69.796875 0.121094 69.835938 C 0.132812 69.851562 0.132812 69.875 0.144531 69.894531 C 0.152344 69.90625 0.160156 69.914062 0.164062 69.921875 C 0.183594 69.953125 0.203125 69.976562 0.222656 70.003906 C 0.242188 70.027344 0.257812 70.054688 0.28125 70.078125 C 0.304688 70.105469 0.328125 70.128906 0.355469 70.152344 C 0.378906 70.175781 0.410156 70.195312 0.4375 70.214844 C 0.460938 70.234375 0.484375 70.257812 0.511719 70.273438 C 0.519531 70.277344 0.535156 70.28125 0.546875 70.285156 C 0.566406 70.296875 0.585938 70.304688 0.605469 70.3125 C 0.628906 70.320312 0.644531 70.335938 0.664062 70.34375 C 0.820312 70.40625 4.59375 71.792969 13.402344 73.058594 C 21.085938 74.152344 30.085938 74.808594 40.160156 75 C 40.164062 75 40.171875 75 40.175781 75 C 40.183594 75 40.191406 75 40.195312 75 C 50.269531 74.808594 59.269531 74.152344 66.953125 73.058594 C 75.761719 71.792969 79.535156 70.40625 79.691406 70.34375 C 79.714844 70.335938 79.726562 70.320312 79.746094 70.3125 C 79.769531 70.304688 79.789062 70.296875 79.808594 70.285156 C 79.820312 70.28125 79.832031 70.277344 79.84375 70.273438 C 79.871094 70.257812 79.894531 70.234375 79.917969 70.214844 C 79.945312 70.195312 79.972656 70.175781 80 70.152344 C 80.027344 70.128906 80.050781 70.105469 80.078125 70.078125 C 80.097656 70.054688 80.113281 70.027344 80.132812 70.003906 C 80.152344 69.976562 80.171875 69.953125 80.1875 69.921875 C 80.195312 69.914062 80.207031 69.90625 80.210938 69.894531 C 80.222656 69.875 80.222656 69.851562 80.234375 69.835938 C 80.25 69.796875 80.265625 69.761719 80.28125 69.71875 C 80.292969 69.6875 80.300781 69.65625 80.308594 69.621094 " fill-opacity="1" fill-rule="nonzero"/></g><g fill="#ffffff" fill-opacity="1"><g transform="translate(27.681731, 55.279636)"><g><path d="M 11.4375 -10.890625 L 11.4375 -8.703125 L 2.71875 -8.703125 L 2.71875 -2.171875 L 9.25 -2.171875 L 9.25 -4.359375 L 4.90625 -4.359375 L 4.90625 -6.53125 L 11.4375 -6.53125 L 11.4375 -2.171875 C 11.4375 -1.785156 11.335938 -1.425781 11.140625 -1.09375 C 10.941406 -0.757812 10.675781 -0.492188 10.34375 -0.296875 C 10.019531 -0.0976562 9.65625 0 9.25 0 L 2.71875 0 C 2.320312 0 1.957031 -0.09375 1.625 -0.28125 C 1.289062 -0.476562 1.023438 -0.742188 0.828125 -1.078125 C 0.640625 -1.410156 0.546875 -1.773438 0.546875 -2.171875 L 0.546875 -8.703125 C 0.546875 -9.109375 0.640625 -9.472656 0.828125 -9.796875 C 1.023438 -10.128906 1.289062 -10.394531 1.625 -10.59375 C 1.957031 -10.789062 2.320312 -10.890625 2.71875 -10.890625 Z M 11.4375 -10.890625 "/></g></g></g><g fill="#ffffff" fill-opacity="1"><g transform="translate(39.096828, 55.279636)"><g><path d="M 5.984375 0 C 5.492188 0 5.039062 -0.171875 4.625 -0.515625 L 0.953125 -3.671875 C 0.679688 -3.921875 0.546875 -4.210938 0.546875 -4.546875 L 0.546875 -10.890625 L 2.71875 -10.890625 L 2.71875 -5.03125 L 5.984375 -2.21875 L 9.25 -5.03125 L 9.25 -10.890625 L 11.4375 -10.890625 L 11.421875 -4.546875 C 11.421875 -4.203125 11.289062 -3.910156 11.03125 -3.671875 L 7.34375 -0.515625 C 6.945312 -0.171875 6.492188 0 5.984375 0 Z M 5.984375 0 "/></g></g></g><g fill="#ffffff" fill-opacity="1"><g transform="translate(88.499989, 47.99273)"><g><path d="M 13.875 0.34375 C 11.863281 0.34375 10.113281 0.0390625 8.625 -0.5625 C 7.132812 -1.175781 5.894531 -2.039062 4.90625 -3.15625 C 3.925781 -4.269531 3.191406 -5.609375 2.703125 -7.171875 C 2.222656 -8.742188 1.984375 -10.484375 1.984375 -12.390625 C 1.984375 -14.253906 2.238281 -15.960938 2.75 -17.515625 C 3.257812 -19.078125 4.023438 -20.414062 5.046875 -21.53125 C 6.066406 -22.644531 7.332031 -23.507812 8.84375 -24.125 C 10.351562 -24.75 12.101562 -25.0625 14.09375 -25.0625 C 15.375 -25.0625 16.488281 -24.960938 17.4375 -24.765625 C 18.394531 -24.566406 19.191406 -24.289062 19.828125 -23.9375 C 20.460938 -23.59375 20.9375 -23.179688 21.25 -22.703125 C 21.570312 -22.234375 21.734375 -21.722656 21.734375 -21.171875 C 21.734375 -20.796875 21.644531 -20.457031 21.46875 -20.15625 C 21.300781 -19.863281 21.070312 -19.613281 20.78125 -19.40625 C 20.5 -19.195312 20.164062 -19.035156 19.78125 -18.921875 C 19.394531 -18.816406 18.972656 -18.765625 18.515625 -18.765625 C 18.515625 -19.296875 18.4375 -19.828125 18.28125 -20.359375 C 18.125 -20.890625 17.863281 -21.363281 17.5 -21.78125 C 17.144531 -22.207031 16.671875 -22.550781 16.078125 -22.8125 C 15.492188 -23.082031 14.78125 -23.21875 13.9375 -23.21875 C 12.476562 -23.21875 11.234375 -22.976562 10.203125 -22.5 C 9.171875 -22.019531 8.328125 -21.320312 7.671875 -20.40625 C 7.015625 -19.488281 6.539062 -18.351562 6.25 -17 C 5.957031 -15.65625 5.8125 -14.117188 5.8125 -12.390625 C 5.8125 -10.660156 5.960938 -9.125 6.265625 -7.78125 C 6.566406 -6.445312 7.0625 -5.320312 7.75 -4.40625 C 8.4375 -3.5 9.328125 -2.804688 10.421875 -2.328125 C 11.515625 -1.859375 12.851562 -1.625 14.4375 -1.625 C 15.09375 -1.625 15.734375 -1.65625 16.359375 -1.71875 C 16.992188 -1.789062 17.550781 -1.898438 18.03125 -2.046875 L 18.03125 -7.625 C 18.03125 -8.125 17.953125 -8.53125 17.796875 -8.84375 C 17.648438 -9.15625 17.445312 -9.390625 17.1875 -9.546875 C 16.925781 -9.710938 16.625 -9.820312 16.28125 -9.875 C 15.9375 -9.9375 15.570312 -9.96875 15.1875 -9.96875 L 15.0625 -9.96875 L 15.0625 -11.421875 L 24.046875 -11.421875 L 24.046875 -9.96875 L 23.90625 -9.96875 C 23.582031 -9.96875 23.273438 -9.9375 22.984375 -9.875 C 22.691406 -9.820312 22.4375 -9.707031 22.21875 -9.53125 C 22.007812 -9.363281 21.84375 -9.113281 21.71875 -8.78125 C 21.59375 -8.445312 21.53125 -8.007812 21.53125 -7.46875 L 21.53125 -1.25 C 20.363281 -0.707031 19.164062 -0.304688 17.9375 -0.046875 C 16.71875 0.210938 15.363281 0.34375 13.875 0.34375 Z M 13.875 0.34375 "/></g></g></g><g fill="#ffffff" fill-opacity="1"><g transform="translate(111.764954, 47.99273)"><g><path d="M 7 -8.265625 L 5.671875 -4.625 C 5.578125 -4.351562 5.5 -4.085938 5.4375 -3.828125 C 5.382812 -3.566406 5.359375 -3.335938 5.359375 -3.140625 C 5.359375 -2.554688 5.546875 -2.128906 5.921875 -1.859375 C 6.296875 -1.585938 6.875 -1.453125 7.65625 -1.453125 L 8.453125 -1.453125 L 8.453125 0 L 0 0 L 0 -1.453125 L 0.65625 -1.453125 C 1 -1.453125 1.285156 -1.488281 1.515625 -1.5625 C 1.753906 -1.632812 1.96875 -1.769531 2.15625 -1.96875 C 2.351562 -2.175781 2.535156 -2.453125 2.703125 -2.796875 C 2.878906 -3.148438 3.078125 -3.601562 3.296875 -4.15625 L 10.96875 -24.703125 L 13.671875 -24.703125 L 21.5 -3.296875 C 21.632812 -2.929688 21.769531 -2.628906 21.90625 -2.390625 C 22.050781 -2.160156 22.21875 -1.972656 22.40625 -1.828125 C 22.601562 -1.691406 22.820312 -1.59375 23.0625 -1.53125 C 23.3125 -1.476562 23.609375 -1.453125 23.953125 -1.453125 L 24.40625 -1.453125 L 24.40625 0 L 14.890625 0 L 14.890625 -1.453125 L 15.6875 -1.453125 C 17.070312 -1.453125 17.765625 -2.003906 17.765625 -3.109375 C 17.765625 -3.296875 17.738281 -3.488281 17.6875 -3.6875 C 17.632812 -3.894531 17.5625 -4.128906 17.46875 -4.390625 L 16.09375 -8.265625 Z M 13.3125 -16.046875 C 12.957031 -17.078125 12.628906 -18.039062 12.328125 -18.9375 C 12.023438 -19.832031 11.78125 -20.695312 11.59375 -21.53125 C 11.507812 -21.113281 11.414062 -20.707031 11.3125 -20.3125 C 11.207031 -19.925781 11.09375 -19.53125 10.96875 -19.125 C 10.84375 -18.71875 10.703125 -18.289062 10.546875 -17.84375 C 10.390625 -17.40625 10.207031 -16.914062 10 -16.375 L 7.65625 -10 L 15.46875 -10 Z M 13.3125 -16.046875 "/></g></g></g><g fill="#ffffff" fill-opacity="1"><g transform="translate(134.726007, 47.99273)"><g><path d="M 21.9375 0 L 21.9375 -1.453125 L 22.046875 -1.453125 C 22.421875 -1.453125 22.753906 -1.476562 23.046875 -1.53125 C 23.347656 -1.582031 23.601562 -1.679688 23.8125 -1.828125 C 24.019531 -1.984375 24.1875 -2.203125 24.3125 -2.484375 C 24.4375 -2.773438 24.507812 -3.160156 24.53125 -3.640625 L 24.53125 -22.125 L 16.609375 0 L 14.734375 0 L 6.703125 -22.046875 L 6.703125 -3.9375 C 6.703125 -3.394531 6.757812 -2.957031 6.875 -2.625 C 6.988281 -2.300781 7.15625 -2.050781 7.375 -1.875 C 7.59375 -1.707031 7.859375 -1.59375 8.171875 -1.53125 C 8.484375 -1.476562 8.828125 -1.453125 9.203125 -1.453125 L 9.3125 -1.453125 L 9.3125 0 L 1.3125 0 L 1.3125 -1.453125 L 1.75 -1.453125 C 2.132812 -1.453125 2.5 -1.476562 2.84375 -1.53125 C 3.1875 -1.582031 3.488281 -1.6875 3.75 -1.84375 C 4.007812 -2 4.210938 -2.234375 4.359375 -2.546875 C 4.515625 -2.859375 4.59375 -3.265625 4.59375 -3.765625 L 4.59375 -20.90625 C 4.59375 -21.414062 4.515625 -21.820312 4.359375 -22.125 C 4.210938 -22.4375 4.007812 -22.675781 3.75 -22.84375 C 3.488281 -23.007812 3.1875 -23.117188 2.84375 -23.171875 C 2.5 -23.222656 2.132812 -23.25 1.75 -23.25 L 1.3125 -23.25 L 1.3125 -24.703125 L 9.203125 -24.703125 L 16.375 -4.921875 L 23.46875 -24.703125 L 31.140625 -24.703125 L 31.140625 -23.25 L 30.703125 -23.25 C 30.304688 -23.25 29.9375 -23.21875 29.59375 -23.15625 C 29.25 -23.101562 28.945312 -22.988281 28.6875 -22.8125 C 28.4375 -22.644531 28.234375 -22.394531 28.078125 -22.0625 C 27.929688 -21.738281 27.859375 -21.304688 27.859375 -20.765625 L 27.859375 -3.9375 C 27.859375 -3.394531 27.929688 -2.957031 28.078125 -2.625 C 28.234375 -2.300781 28.4375 -2.050781 28.6875 -1.875 C 28.945312 -1.707031 29.25 -1.59375 29.59375 -1.53125 C 29.9375 -1.476562 30.304688 -1.453125 30.703125 -1.453125 L 31.140625 -1.453125 L 31.140625 0 Z M 21.9375 0 "/></g></g></g><g fill="#ffffff" fill-opacity="1"><g transform="translate(165.740708, 47.99273)"><g><path d="M 8.09375 -1.71875 L 14.765625 -1.71875 C 15.316406 -1.71875 15.785156 -1.796875 16.171875 -1.953125 C 16.566406 -2.109375 16.894531 -2.3125 17.15625 -2.5625 C 17.414062 -2.820312 17.617188 -3.125 17.765625 -3.46875 C 17.910156 -3.8125 18.007812 -4.175781 18.0625 -4.5625 L 18.296875 -6.046875 L 20.109375 -6.046875 L 19.875 0 L 1.3125 0 L 1.3125 -1.453125 L 1.75 -1.453125 C 2.132812 -1.453125 2.5 -1.476562 2.84375 -1.53125 C 3.1875 -1.582031 3.488281 -1.6875 3.75 -1.84375 C 4.007812 -2 4.210938 -2.234375 4.359375 -2.546875 C 4.515625 -2.859375 4.59375 -3.265625 4.59375 -3.765625 L 4.59375 -20.765625 C 4.59375 -21.304688 4.519531 -21.738281 4.375 -22.0625 C 4.226562 -22.394531 4.023438 -22.644531 3.765625 -22.8125 C 3.503906 -22.988281 3.203125 -23.101562 2.859375 -23.15625 C 2.515625 -23.21875 2.144531 -23.25 1.75 -23.25 L 1.3125 -23.25 L 1.3125 -24.703125 L 18.765625 -24.703125 L 18.921875 -18.65625 L 17.140625 -18.65625 L 16.96875 -20.140625 C 16.925781 -20.523438 16.835938 -20.890625 16.703125 -21.234375 C 16.578125 -21.578125 16.390625 -21.878906 16.140625 -22.140625 C 15.898438 -22.398438 15.597656 -22.601562 15.234375 -22.75 C 14.867188 -22.90625 14.425781 -22.984375 13.90625 -22.984375 L 8.09375 -22.984375 L 8.09375 -13.765625 L 16.4375 -13.765625 L 16.4375 -12.078125 L 8.09375 -12.078125 Z M 8.09375 -1.71875 "/></g></g></g><g fill="#ffffff" fill-opacity="1"><g transform="translate(185.17243, 47.99273)"><g><path d="M 10.375 0 L 2.90625 -21.421875 C 2.78125 -21.785156 2.644531 -22.082031 2.5 -22.3125 C 2.351562 -22.550781 2.179688 -22.738281 1.984375 -22.875 C 1.796875 -23.007812 1.578125 -23.101562 1.328125 -23.15625 C 1.085938 -23.21875 0.796875 -23.25 0.453125 -23.25 L 0 -23.25 L 0 -24.703125 L 9.515625 -24.703125 L 9.515625 -23.25 L 8.71875 -23.25 C 8.019531 -23.25 7.5 -23.113281 7.15625 -22.84375 C 6.8125 -22.582031 6.640625 -22.164062 6.640625 -21.59375 C 6.640625 -21.40625 6.664062 -21.207031 6.71875 -21 C 6.769531 -20.800781 6.835938 -20.570312 6.921875 -20.3125 L 10.734375 -9.078125 C 11.078125 -8.046875 11.375 -7.046875 11.625 -6.078125 C 11.875 -5.117188 12.09375 -4.222656 12.28125 -3.390625 C 12.46875 -4.222656 12.679688 -5.109375 12.921875 -6.046875 C 13.171875 -6.984375 13.488281 -7.992188 13.875 -9.078125 L 17.6875 -20.078125 C 17.78125 -20.359375 17.851562 -20.628906 17.90625 -20.890625 C 17.96875 -21.148438 18 -21.375 18 -21.5625 C 18 -22.15625 17.804688 -22.582031 17.421875 -22.84375 C 17.046875 -23.113281 16.476562 -23.25 15.71875 -23.25 L 14.921875 -23.25 L 14.921875 -24.703125 L 23.359375 -24.703125 L 23.359375 -23.25 L 22.703125 -23.25 C 22.359375 -23.25 22.066406 -23.210938 21.828125 -23.140625 C 21.585938 -23.078125 21.367188 -22.945312 21.171875 -22.75 C 20.972656 -22.550781 20.785156 -22.273438 20.609375 -21.921875 C 20.441406 -21.578125 20.265625 -21.125 20.078125 -20.5625 L 12.90625 0 Z M 10.375 0 "/></g></g></g><g fill="#ffffff" fill-opacity="1"><g transform="translate(204.315408, 47.99273)"><g><path d="M 7 -8.265625 L 5.671875 -4.625 C 5.578125 -4.351562 5.5 -4.085938 5.4375 -3.828125 C 5.382812 -3.566406 5.359375 -3.335938 5.359375 -3.140625 C 5.359375 -2.554688 5.546875 -2.128906 5.921875 -1.859375 C 6.296875 -1.585938 6.875 -1.453125 7.65625 -1.453125 L 8.453125 -1.453125 L 8.453125 0 L 0 0 L 0 -1.453125 L 0.65625 -1.453125 C 1 -1.453125 1.285156 -1.488281 1.515625 -1.5625 C 1.753906 -1.632812 1.96875 -1.769531 2.15625 -1.96875 C 2.351562 -2.175781 2.535156 -2.453125 2.703125 -2.796875 C 2.878906 -3.148438 3.078125 -3.601562 3.296875 -4.15625 L 10.96875 -24.703125 L 13.671875 -24.703125 L 21.5 -3.296875 C 21.632812 -2.929688 21.769531 -2.628906 21.90625 -2.390625 C 22.050781 -2.160156 22.21875 -1.972656 22.40625 -1.828125 C 22.601562 -1.691406 22.820312 -1.59375 23.0625 -1.53125 C 23.3125 -1.476562 23.609375 -1.453125 23.953125 -1.453125 L 24.40625 -1.453125 L 24.40625 0 L 14.890625 0 L 14.890625 -1.453125 L 15.6875 -1.453125 C 17.070312 -1.453125 17.765625 -2.003906 17.765625 -3.109375 C 17.765625 -3.296875 17.738281 -3.488281 17.6875 -3.6875 C 17.632812 -3.894531 17.5625 -4.128906 17.46875 -4.390625 L 16.09375 -8.265625 Z M 13.3125 -16.046875 C 12.957031 -17.078125 12.628906 -18.039062 12.328125 -18.9375 C 12.023438 -19.832031 11.78125 -20.695312 11.59375 -21.53125 C 11.507812 -21.113281 11.414062 -20.707031 11.3125 -20.3125 C 11.207031 -19.925781 11.09375 -19.53125 10.96875 -19.125 C 10.84375 -18.71875 10.703125 -18.289062 10.546875 -17.84375 C 10.390625 -17.40625 10.207031 -16.914062 10 -16.375 L 7.65625 -10 L 15.46875 -10 Z M 13.3125 -16.046875 "/></g></g></g><g fill="#ffffff" fill-opacity="1"><g transform="translate(226.583633, 47.99273)"><g><path d="M 12.515625 0.34375 C 11.160156 0.34375 9.941406 0.195312 8.859375 -0.09375 C 7.773438 -0.382812 6.859375 -0.84375 6.109375 -1.46875 C 5.359375 -2.09375 4.785156 -2.894531 4.390625 -3.875 C 3.992188 -4.863281 3.796875 -6.0625 3.796875 -7.46875 L 3.796875 -20.90625 C 3.796875 -21.414062 3.71875 -21.820312 3.5625 -22.125 C 3.414062 -22.4375 3.210938 -22.675781 2.953125 -22.84375 C 2.691406 -23.007812 2.390625 -23.117188 2.046875 -23.171875 C 1.703125 -23.222656 1.34375 -23.25 0.96875 -23.25 L 0.53125 -23.25 L 0.53125 -24.703125 L 10.59375 -24.703125 L 10.59375 -23.25 L 10.140625 -23.25 C 9.753906 -23.25 9.382812 -23.21875 9.03125 -23.15625 C 8.6875 -23.101562 8.382812 -22.988281 8.125 -22.8125 C 7.875 -22.644531 7.671875 -22.394531 7.515625 -22.0625 C 7.367188 -21.738281 7.296875 -21.304688 7.296875 -20.765625 L 7.296875 -7.265625 C 7.296875 -6.265625 7.4375 -5.410156 7.71875 -4.703125 C 8.007812 -4.003906 8.410156 -3.429688 8.921875 -2.984375 C 9.441406 -2.546875 10.050781 -2.222656 10.75 -2.015625 C 11.457031 -1.816406 12.234375 -1.71875 13.078125 -1.71875 C 14.078125 -1.71875 14.941406 -1.851562 15.671875 -2.125 C 16.398438 -2.394531 17.003906 -2.769531 17.484375 -3.25 C 17.960938 -3.726562 18.316406 -4.296875 18.546875 -4.953125 C 18.773438 -5.617188 18.890625 -6.34375 18.890625 -7.125 L 18.890625 -20.90625 C 18.890625 -21.414062 18.8125 -21.820312 18.65625 -22.125 C 18.507812 -22.4375 18.304688 -22.675781 18.046875 -22.84375 C 17.785156 -23.007812 17.484375 -23.117188 17.140625 -23.171875 C 16.796875 -23.222656 16.429688 -23.25 16.046875 -23.25 L 15.609375 -23.25 L 15.609375 -24.703125 L 24.296875 -24.703125 L 24.296875 -23.25 L 23.84375 -23.25 C 23.457031 -23.25 23.085938 -23.21875 22.734375 -23.15625 C 22.390625 -23.101562 22.09375 -22.988281 21.84375 -22.8125 C 21.59375 -22.644531 21.390625 -22.394531 21.234375 -22.0625 C 21.078125 -21.738281 21 -21.304688 21 -20.765625 L 21 -7.0625 C 21 -5.914062 20.816406 -4.878906 20.453125 -3.953125 C 20.085938 -3.035156 19.546875 -2.257812 18.828125 -1.625 C 18.117188 -0.988281 17.234375 -0.5 16.171875 -0.15625 C 15.109375 0.175781 13.890625 0.34375 12.515625 0.34375 Z M 12.515625 0.34375 "/></g></g></g><g fill="#ffffff" fill-opacity="1"><g transform="translate(249.949898, 47.99273)"><g><path d="M 1.3125 0 L 1.3125 -1.453125 L 1.75 -1.453125 C 2.144531 -1.453125 2.515625 -1.476562 2.859375 -1.53125 C 3.203125 -1.59375 3.503906 -1.707031 3.765625 -1.875 C 4.023438 -2.050781 4.226562 -2.300781 4.375 -2.625 C 4.519531 -2.957031 4.59375 -3.394531 4.59375 -3.9375 L 4.59375 -20.765625 C 4.59375 -21.304688 4.519531 -21.738281 4.375 -22.0625 C 4.226562 -22.394531 4.023438 -22.644531 3.765625 -22.8125 C 3.503906 -22.988281 3.203125 -23.101562 2.859375 -23.15625 C 2.515625 -23.21875 2.144531 -23.25 1.75 -23.25 L 1.3125 -23.25 L 1.3125 -24.703125 L 11.390625 -24.703125 L 11.390625 -23.25 L 10.9375 -23.25 C 10.550781 -23.25 10.1875 -23.222656 9.84375 -23.171875 C 9.5 -23.117188 9.195312 -23.007812 8.9375 -22.84375 C 8.675781 -22.675781 8.46875 -22.4375 8.3125 -22.125 C 8.164062 -21.820312 8.09375 -21.414062 8.09375 -20.90625 L 8.09375 -1.71875 L 14.921875 -1.71875 C 15.441406 -1.71875 15.882812 -1.8125 16.25 -2 C 16.613281 -2.1875 16.910156 -2.425781 17.140625 -2.71875 C 17.378906 -3.019531 17.5625 -3.359375 17.6875 -3.734375 C 17.820312 -4.109375 17.914062 -4.476562 17.96875 -4.84375 L 18.296875 -7.4375 L 20.109375 -7.4375 L 19.875 0 Z M 1.3125 0 "/></g></g></g><g fill="#ffffff" fill-opacity="1"><g transform="translate(267.658031, 47.99273)"><g><path d="M 12.3125 -3.9375 C 12.3125 -3.394531 12.390625 -2.957031 12.546875 -2.625 C 12.703125 -2.300781 12.90625 -2.050781 13.15625 -1.875 C 13.40625 -1.707031 13.703125 -1.59375 14.046875 -1.53125 C 14.398438 -1.476562 14.769531 -1.453125 15.15625 -1.453125 L 15.953125 -1.453125 L 15.953125 0 L 5.1875 0 L 5.1875 -1.453125 L 5.984375 -1.453125 C 6.367188 -1.453125 6.734375 -1.476562 7.078125 -1.53125 C 7.421875 -1.582031 7.71875 -1.6875 7.96875 -1.84375 C 8.226562 -2 8.4375 -2.234375 8.59375 -2.546875 C 8.75 -2.859375 8.828125 -3.265625 8.828125 -3.765625 L 8.828125 -22.984375 L 5.515625 -22.984375 C 5.003906 -22.984375 4.578125 -22.90625 4.234375 -22.75 C 3.890625 -22.601562 3.609375 -22.398438 3.390625 -22.140625 C 3.171875 -21.878906 3.003906 -21.578125 2.890625 -21.234375 C 2.785156 -20.890625 2.710938 -20.523438 2.671875 -20.140625 L 2.484375 -18.65625 L 0.6875 -18.65625 L 0.859375 -24.703125 L 20.34375 -24.703125 L 20.515625 -18.65625 L 18.71875 -18.65625 L 18.5625 -20.140625 C 18.507812 -20.523438 18.425781 -20.890625 18.3125 -21.234375 C 18.207031 -21.578125 18.046875 -21.878906 17.828125 -22.140625 C 17.609375 -22.398438 17.320312 -22.601562 16.96875 -22.75 C 16.625 -22.90625 16.195312 -22.984375 15.6875 -22.984375 L 12.3125 -22.984375 Z M 12.3125 -3.9375 "/></g></g></g></svg>